<?xml version="1.0" encoding="utf-8"?>
<!-- Generator: Adobe Illustrator 16.0.0, SVG Export Plug-In . SVG Version: 6.00 Build 0)  -->
<!DOCTYPE svg PUBLIC "-//W3C//DTD SVG 1.1//EN" "http://www.w3.org/Graphics/SVG/1.1/DTD/svg11.dtd">
<svg version="1.1" id="Layer_1" xmlns="http://www.w3.org/2000/svg" xmlns:xlink="http://www.w3.org/1999/xlink" x="0px" y="0px"
	 width="220px" height="220px" viewBox="0 0 220 220" enable-background="new 0 0 220 220" xml:space="preserve">
<g>
	<defs>
		<circle id="SVGID_1_" cx="110" cy="110" r="110"/>
	</defs>
	<clipPath id="SVGID_2_">
		<use xlink:href="#SVGID_1_"  overflow="visible"/>
	</clipPath>
	<g clip-path="url(#SVGID_2_)">
		<circle opacity="0.8" fill="#F15A29" cx="111.667" cy="109.166" r="113.667"/>
		<path fill="#F8EFE0" d="M-2.297,73.899L77.571,49.72l29.922,129.591l-51.478,28.918c0,0-42.302-22.496-53.558-55.137
			S-8.721,102.071-2.297,73.899z"/>
		<polygon fill="#E1D9CC" points="84.667,50.833 121.667,54.833 139.334,202.166 105.667,182.166 		"/>
		<path fill="#F8EFE0" d="M121.667,54.833L186.001,24.5c0,0,27.001,23.333,34.667,54.333s6.667,57.999-10,85.333
			s-45,45.667-45,45.667"/>
		<g>
			<g>
				<path fill="#58595B" d="M125.988,126.559l-7.801,30.236c0,0,2.664-5.78,4.523-6.151l6.354-24.634"/>
				<path fill="#1CAEE4" d="M175.547,28.219c-3.393,8.787-10.094,17.907-25.086,31.565c1.801,0.396,3.42,0.932,4.328,1.641
					c0,0-0.455,0.549-5.553-0.522c-2.213,1.99-4.592,4.075-7.164,6.271c-4.75,4.052-8.332,9.261-11.049,14.894
					c3.105,0.366,6.746,1.077,8.312,2.294c0,0-0.621,0.769-8.789-1.271c-1.713,3.717-3.041,7.596-4.094,11.44
					c2.457,0.338,4.752,0.747,5.541,1.16c0,0-2.168-0.118-5.68-0.627c-0.113,0.425-0.217,0.853-0.328,1.277
					c2.402,0.33,4.605,0.73,5.377,1.13c0,0-2.107-0.117-5.512-0.6c-0.129,0.526-0.258,1.049-0.381,1.571
					c2.316,0.333,4.408,0.72,5.158,1.109c0,0-2.02-0.116-5.273-0.568c-0.094,0.429-0.186,0.854-0.27,1.281
					c2.215,0.321,4.186,0.691,4.91,1.073c0,0-1.922-0.113-5.025-0.54c-2.737,13.484-2.286,25.019-2.286,25.019
					c0.286,4.378,2.946,4.498,4.977,3.928c-2.797-15.164,14.369-38.246,25.518-48.62C164.631,70.466,175.547,28.219,175.547,28.219z
					"/>
				<path fill="#198DB8" d="M169.299,84.391c-1.254-5.101-4.256-9.431-4.256-9.431c2.258,0.163,4.828,2.427,6.424,4.082
					c2.271-6.67,3.533-14.089,4.182-21.164c-1.893-0.476-4.027-1.049-6.455-1.733c-0.9-0.257,2.357-0.254,6.596,0.181
					c1.205-15.063-0.242-28.106-0.242-28.106s-10.916,42.247-22.367,52.904c-11.148,10.374-28.314,33.456-25.518,48.62
					c1.297-0.362,2.346-1.007,2.346-1.007c-4.771-6.361,21.748-18.046,35.957-38.418C167.232,88.508,168.316,86.498,169.299,84.391z
					"/>
			</g>
			<g>
				<path fill="#12578E" d="M109.481,143.065l2.093,7.52c0,0-21.467,6.214-20.728,27.466s8.421,30.891,33.178,29.393
					c24.756-1.498,28.16-12.9,27.092-30.582c-1.07-17.683-12.848-27.348-23.764-27.231l1.648-8.837l-20.229-0.414L109.481,143.065z"
					/>
				
					<ellipse transform="matrix(0.9982 -0.0604 0.0604 0.9982 -10.5498 7.6225)" fill="#17629E" cx="120.763" cy="178.251" rx="24.97" ry="24.272"/>
				<path fill="#27AAE1" d="M120.938,160.923c0,0-8.715,0.527-10.079,6.907c-1.363,6.38-3.974,26.831,20.882,27.076l-0.318-5.229
					c0,0-10.035-3.941-10.635-8.104c0,0,12.739,2.378,12.561-6.357C133.17,166.479,131.047,160.311,120.938,160.923z"/>
			</g>
		</g>
		<path fill="#E6E7E8" d="M12.667,103.833"/>
		<line fill="none" stroke="#6D6E71" stroke-miterlimit="10" x1="9.334" y1="94.167" x2="66.334" y2="80.833"/>
		<line fill="none" stroke="#6D6E71" stroke-miterlimit="10" x1="13.334" y1="111.5" x2="70.334" y2="98.166"/>
		<line fill="none" stroke="#6D6E71" stroke-miterlimit="10" x1="16.334" y1="127.5" x2="73.334" y2="114.166"/>
		<line fill="none" stroke="#6D6E71" stroke-miterlimit="10" x1="20.334" y1="144.833" x2="77.334" y2="131.499"/>
		<line fill="none" stroke="#6D6E71" stroke-miterlimit="10" x1="26" y1="160.167" x2="83" y2="146.833"/>
		<line fill="none" stroke="#6D6E71" stroke-miterlimit="10" x1="31.334" y1="174.5" x2="80" y2="162.166"/>
		<line fill="none" stroke="#A7A9AC" stroke-miterlimit="10" x1="94.667" y1="73.833" x2="115.001" y2="80.833"/>
		<line fill="none" stroke="#A7A9AC" stroke-miterlimit="10" x1="96.334" y1="91.5" x2="116.667" y2="98.5"/>
		<line fill="none" stroke="#A7A9AC" stroke-miterlimit="10" x1="100" y1="108.833" x2="110.667" y2="111.166"/>
		<line fill="none" stroke="#A7A9AC" stroke-miterlimit="10" x1="100.333" y1="122.311" x2="109.001" y2="124.354"/>
		<path fill="#E6E7E8" d="M142.479,77.8"/>
		<line fill="none" stroke="#6D6E71" stroke-miterlimit="10" x1="182.897" y1="50.993" x2="196.334" y2="45.833"/>
		<line fill="none" stroke="#6D6E71" stroke-miterlimit="10" x1="181.002" y1="71.174" x2="198.891" y2="64.558"/>
		<line fill="none" stroke="#6D6E71" stroke-miterlimit="10" x1="173.001" y1="91.833" x2="203.979" y2="80.029"/>
		<line fill="none" stroke="#6D6E71" stroke-miterlimit="10" x1="151.667" y1="119.833" x2="210.233" y2="96.682"/>
		<line fill="none" stroke="#6D6E71" stroke-miterlimit="10" x1="157.001" y1="134.166" x2="217.875" y2="111.133"/>
		<line fill="none" stroke="#6D6E71" stroke-miterlimit="10" x1="161.334" y1="148.833" x2="208.161" y2="131.596"/>
	</g>
</g>
</svg>
