<?xml version="1.0" encoding="utf-8"?>
<!-- Generator: Adobe Illustrator 16.0.0, SVG Export Plug-In . SVG Version: 6.00 Build 0)  -->
<!DOCTYPE svg PUBLIC "-//W3C//DTD SVG 1.1//EN" "http://www.w3.org/Graphics/SVG/1.1/DTD/svg11.dtd">
<svg version="1.1" id="Layer_1" xmlns="http://www.w3.org/2000/svg" xmlns:xlink="http://www.w3.org/1999/xlink" x="0px" y="0px"
	 width="167.5px" height="191.682px" viewBox="0 0 167.5 191.682" enable-background="new 0 0 167.5 191.682" xml:space="preserve">
<path fill="#37A4DC" d="M137,68.5C137,30.668,106.33,0,68.501,0C30.669,0,0,30.668,0,68.5c0,2.34,0.119,4.651,0.349,6.932
	c0.036,10.653,1.63,22.768,5.879,35.114c9.672,28.108,27.958,48.661,37.78,56.974c9.823,8.312,35.967,23.086,41.332,24.162
	l-0.229-35.363c0,0-11.898-9.125-15.246-19.354C107.062,136.234,137,105.874,137,68.5z"/>
<path fill="#737577" d="M167.5,43.805c0,5.381-4.361,9.741-9.742,9.741h-56.017c-5.38,0-9.742-4.36-9.742-9.741V27.162
	c0-5.38,4.362-9.742,9.742-9.742h56.016c5.38,0,9.742,4.362,9.742,9.742L167.5,43.805L167.5,43.805z"/>
<rect x="97.5" y="28.42" fill="none" width="66" height="46.5"/>
<g enable-background="new    ">
	<path fill="#FFFFFF" d="M114.417,28.407h1.452v4.425c0.328-0.427,0.72-0.752,1.176-0.976c0.455-0.225,0.949-0.337,1.482-0.337
		c1.111,0,2.014,0.381,2.705,1.142s1.037,1.883,1.037,3.366c0,1.405-0.342,2.573-1.025,3.503s-1.63,1.395-2.842,1.395
		c-0.678,0-1.249-0.163-1.716-0.489c-0.278-0.194-0.575-0.504-0.892-0.93v1.137h-1.378V28.407z M120.13,38.643
		c0.403-0.643,0.604-1.489,0.604-2.541c0-0.935-0.201-1.709-0.604-2.324c-0.402-0.613-0.995-0.921-1.778-0.921
		c-0.683,0-1.281,0.252-1.795,0.755c-0.514,0.504-0.77,1.334-0.77,2.49c0,0.836,0.105,1.514,0.316,2.034
		c0.394,0.979,1.129,1.47,2.207,1.47C119.121,39.605,119.728,39.284,120.13,38.643z"/>
	<path fill="#FFFFFF" d="M129.487,31.997c0.589,0.296,1.036,0.68,1.345,1.149c0.297,0.449,0.495,0.972,0.594,1.569
		c0.088,0.409,0.133,1.062,0.133,1.959h-6.467c0.027,0.904,0.238,1.63,0.635,2.177c0.395,0.547,1.007,0.82,1.836,0.82
		c0.774,0,1.393-0.259,1.854-0.776c0.258-0.3,0.441-0.647,0.549-1.042h1.469c-0.039,0.326-0.168,0.69-0.386,1.092
		c-0.219,0.401-0.463,0.729-0.731,0.983c-0.451,0.442-1.008,0.741-1.673,0.896c-0.356,0.089-0.761,0.133-1.211,0.133
		c-1.1,0-2.032-0.402-2.796-1.208c-0.765-0.805-1.146-1.933-1.146-3.383c0-1.428,0.385-2.587,1.154-3.478s1.776-1.337,3.02-1.337
		C128.291,31.553,128.898,31.701,129.487,31.997z M130.022,35.488c-0.061-0.648-0.2-1.165-0.42-1.553
		c-0.406-0.72-1.083-1.079-2.033-1.079c-0.681,0-1.251,0.248-1.712,0.743s-0.705,1.125-0.732,1.889H130.022z"/>
	<path fill="#FFFFFF" d="M133.75,29.271h1.51v2.481h1.42v1.221h-1.42v5.803c0,0.31,0.105,0.517,0.316,0.622
		c0.115,0.061,0.31,0.091,0.58,0.091c0.072,0,0.15-0.001,0.232-0.005c0.084-0.004,0.18-0.013,0.291-0.028v1.188
		c-0.172,0.05-0.35,0.086-0.535,0.107c-0.186,0.022-0.387,0.033-0.602,0.033c-0.697,0-1.171-0.178-1.42-0.535
		c-0.249-0.356-0.373-0.82-0.373-1.391v-5.885h-1.204v-1.221h1.204V29.271z"/>
	<path fill="#FFFFFF" d="M142.938,35.263c0.343-0.044,0.573-0.188,0.688-0.432c0.066-0.133,0.1-0.324,0.1-0.574
		c0-0.512-0.181-0.882-0.542-1.112c-0.362-0.23-0.88-0.346-1.554-0.346c-0.778,0-1.33,0.211-1.656,0.634
		c-0.183,0.233-0.301,0.581-0.356,1.042h-1.395c0.028-1.099,0.383-1.862,1.065-2.293c0.683-0.43,1.475-0.645,2.375-0.645
		c1.045,0,1.894,0.199,2.545,0.598c0.647,0.398,0.971,1.018,0.971,1.859v5.121c0,0.155,0.031,0.28,0.096,0.374
		c0.063,0.094,0.197,0.141,0.402,0.141c0.066,0,0.141-0.004,0.225-0.013c0.082-0.008,0.171-0.021,0.266-0.037v1.104
		c-0.232,0.066-0.41,0.108-0.531,0.125c-0.122,0.017-0.288,0.025-0.498,0.025c-0.516,0-0.889-0.184-1.121-0.548
		c-0.121-0.194-0.207-0.468-0.258-0.822c-0.304,0.398-0.741,0.744-1.311,1.038c-0.57,0.293-1.199,0.439-1.885,0.439
		c-0.824,0-1.498-0.25-2.021-0.75c-0.522-0.5-0.784-1.126-0.784-1.878c0-0.823,0.257-1.462,0.772-1.915
		c0.514-0.453,1.189-0.732,2.025-0.838L142.938,35.263z M139.793,39.299c0.314,0.248,0.688,0.373,1.12,0.373
		c0.526,0,1.034-0.122,1.527-0.365c0.83-0.403,1.245-1.063,1.245-1.98v-1.202c-0.182,0.117-0.417,0.214-0.704,0.292
		c-0.287,0.077-0.569,0.133-0.845,0.166l-0.903,0.116c-0.541,0.071-0.948,0.185-1.221,0.34c-0.462,0.259-0.693,0.674-0.693,1.242
		C139.319,38.711,139.477,39.05,139.793,39.299z"/>
</g>
</svg>
