<?xml version="1.0" encoding="utf-8"?>
<!-- Generator: Adobe Illustrator 16.0.0, SVG Export Plug-In . SVG Version: 6.00 Build 0)  -->
<!DOCTYPE svg PUBLIC "-//W3C//DTD SVG 1.1//EN" "http://www.w3.org/Graphics/SVG/1.1/DTD/svg11.dtd">
<svg version="1.1" id="Layer_1" xmlns="http://www.w3.org/2000/svg" xmlns:xlink="http://www.w3.org/1999/xlink" x="0px" y="0px"
	 width="227.334px" height="228.333px" viewBox="0 0 227.334 228.333" enable-background="new 0 0 227.334 228.333"
	 xml:space="preserve">
<g opacity="0.4">
	<defs>
		<circle id="SVGID_1_" opacity="0.4" cx="113.667" cy="113.843" r="113.667"/>
	</defs>
	<clipPath id="SVGID_2_">
		<use xlink:href="#SVGID_1_"  overflow="visible"/>
	</clipPath>
	<g clip-path="url(#SVGID_2_)">
		<path fill="#27AAE1" d="M-32.307,157.525c0,0-3.552,1.863-2.921,4.793c0.632,2.93,3.395,11.99,13.853,7.407l-1.118-2.131
			c0,0-4.947,0.24-5.983-1.391c0,0,5.784-1.405,4.063-5.031C-26.136,157.547-28.188,155.363-32.307,157.525z"/>
		<path fill="#27AAE1" d="M-12.974,147.858c0,0-3.551,1.863-2.92,4.793s3.394,11.989,13.852,7.407l-1.118-2.131
			c0,0-4.946,0.24-5.983-1.391c0,0,5.785-1.405,4.064-5.031C-6.802,147.88-8.854,145.696-12.974,147.858z"/>
		<path fill="#27AAE1" d="M9.36,134.525c0,0-3.552,1.863-2.921,4.793c0.632,2.93,3.395,11.99,13.853,7.407l-1.118-2.131
			c0,0-4.947,0.24-5.983-1.391c0,0,5.784-1.405,4.063-5.031C15.531,134.547,13.479,132.363,9.36,134.525z"/>
		<path fill="#27AAE1" d="M28.693,124.858c0,0-3.551,1.863-2.92,4.793s3.394,11.989,13.852,7.407l-1.118-2.131
			c0,0-4.946,0.24-5.983-1.391c0,0,5.785-1.405,4.064-5.031C34.865,124.88,32.812,122.696,28.693,124.858z"/>
		<path fill="#27AAE1" d="M50.36,113.191c0,0-3.552,1.863-2.921,4.792c0.632,2.93,3.395,11.99,13.853,7.408l-1.118-2.131
			c0,0-4.947,0.24-5.983-1.391c0,0,5.784-1.406,4.063-5.031C56.531,113.214,54.479,111.029,50.36,113.191z"/>
		<path fill="#27AAE1" d="M69.693,103.524c0,0-3.551,1.863-2.92,4.793s3.394,11.99,13.852,7.408l-1.118-2.131
			c0,0-4.946,0.24-5.983-1.391c0,0,5.785-1.405,4.064-5.031C75.865,103.547,73.812,101.362,69.693,103.524z"/>
		<path fill="#27AAE1" d="M92.027,90.191c0,0-3.552,1.863-2.921,4.793c0.632,2.93,3.395,11.99,13.853,7.407l-1.118-2.131
			c0,0-4.947,0.24-5.983-1.391c0,0,5.784-1.405,4.063-5.031C98.198,90.214,96.146,88.029,92.027,90.191z"/>
		<path fill="#27AAE1" d="M111.36,80.524c0,0-3.551,1.863-2.92,4.793s3.394,11.99,13.852,7.407l-1.118-2.131
			c0,0-4.946,0.24-5.983-1.391c0,0,5.785-1.405,4.064-5.031C117.532,80.547,115.479,78.362,111.36,80.524z"/>
		<path fill="#27AAE1" d="M-32.307,180.859c0,0-3.552,1.863-2.921,4.793c0.632,2.93,3.395,11.989,13.853,7.406l-1.118-2.131
			c0,0-4.947,0.24-5.983-1.391c0,0,5.784-1.404,4.063-5.031C-26.136,180.88-28.188,178.697-32.307,180.859z"/>
		<path fill="#27AAE1" d="M-12.974,171.191c0,0-3.551,1.863-2.92,4.793s3.394,11.99,13.852,7.408l-1.118-2.131
			c0,0-4.946,0.24-5.983-1.391c0,0,5.785-1.406,4.064-5.031C-6.802,171.214-8.854,169.029-12.974,171.191z"/>
		<path fill="#27AAE1" d="M9.36,157.859c0,0-3.552,1.863-2.921,4.793c0.632,2.93,3.395,11.989,13.853,7.406l-1.118-2.131
			c0,0-4.947,0.24-5.983-1.391c0,0,5.784-1.404,4.063-5.031C15.531,157.88,13.479,155.697,9.36,157.859z"/>
		<path fill="#27AAE1" d="M28.693,148.191c0,0-3.551,1.863-2.92,4.793s3.394,11.99,13.852,7.408l-1.118-2.131
			c0,0-4.946,0.24-5.983-1.391c0,0,5.785-1.406,4.064-5.031C34.865,148.214,32.812,146.029,28.693,148.191z"/>
		<path fill="#27AAE1" d="M50.36,136.525c0,0-3.552,1.863-2.921,4.793c0.632,2.93,3.395,11.99,13.853,7.407l-1.118-2.131
			c0,0-4.947,0.24-5.983-1.391c0,0,5.784-1.405,4.063-5.031C56.531,136.547,54.479,134.363,50.36,136.525z"/>
		<path fill="#27AAE1" d="M69.693,126.858c0,0-3.551,1.863-2.92,4.793s3.394,11.989,13.852,7.407l-1.118-2.131
			c0,0-4.946,0.24-5.983-1.391c0,0,5.785-1.405,4.064-5.031C75.865,126.88,73.812,124.696,69.693,126.858z"/>
		<path fill="#27AAE1" d="M92.027,113.525c0,0-3.552,1.863-2.921,4.793c0.632,2.93,3.395,11.99,13.853,7.407l-1.118-2.131
			c0,0-4.947,0.24-5.983-1.391c0,0,5.784-1.405,4.063-5.031C98.198,113.547,96.146,111.363,92.027,113.525z"/>
		<path fill="#27AAE1" d="M111.36,103.858c0,0-3.551,1.863-2.92,4.793s3.394,11.989,13.852,7.407l-1.118-2.131
			c0,0-4.946,0.24-5.983-1.391c0,0,5.785-1.405,4.064-5.031C117.532,103.88,115.479,101.696,111.36,103.858z"/>
		<path fill="#27AAE1" d="M-32.307,202.191c0,0-3.552,1.863-2.921,4.793c0.632,2.93,3.395,11.99,13.853,7.408l-1.118-2.131
			c0,0-4.947,0.24-5.983-1.391c0,0,5.784-1.406,4.063-5.031C-26.136,202.214-28.188,200.029-32.307,202.191z"/>
		<path fill="#27AAE1" d="M-12.974,192.525c0,0-3.551,1.863-2.92,4.793s3.394,11.989,13.852,7.406l-1.118-2.131
			c0,0-4.946,0.24-5.983-1.391c0,0,5.785-1.404,4.064-5.031C-6.802,192.546-8.854,190.363-12.974,192.525z"/>
		<path fill="#27AAE1" d="M9.36,179.191c0,0-3.552,1.863-2.921,4.793c0.632,2.93,3.395,11.99,13.853,7.408l-1.118-2.131
			c0,0-4.947,0.24-5.983-1.391c0,0,5.784-1.406,4.063-5.031C15.531,179.214,13.479,177.029,9.36,179.191z"/>
		<path fill="#27AAE1" d="M28.693,169.525c0,0-3.551,1.863-2.92,4.793s3.394,11.989,13.852,7.406l-1.118-2.131
			c0,0-4.946,0.24-5.983-1.391c0,0,5.785-1.404,4.064-5.031C34.865,169.546,32.812,167.363,28.693,169.525z"/>
		<path fill="#27AAE1" d="M50.36,157.858c0,0-3.552,1.863-2.921,4.793c0.632,2.93,3.395,11.989,13.853,7.407l-1.118-2.131
			c0,0-4.947,0.24-5.983-1.391c0,0,5.784-1.405,4.063-5.031C56.531,157.88,54.479,155.696,50.36,157.858z"/>
		<path fill="#27AAE1" d="M69.693,148.191c0,0-3.551,1.863-2.92,4.793s3.394,11.99,13.852,7.407l-1.118-2.131
			c0,0-4.946,0.24-5.983-1.391c0,0,5.785-1.405,4.064-5.031C75.865,148.213,73.812,146.029,69.693,148.191z"/>
		<path fill="#27AAE1" d="M92.027,134.858c0,0-3.552,1.863-2.921,4.793c0.632,2.93,3.395,11.989,13.853,7.407l-1.118-2.131
			c0,0-4.947,0.24-5.983-1.391c0,0,5.784-1.405,4.063-5.031C98.198,134.88,96.146,132.696,92.027,134.858z"/>
		<path fill="#27AAE1" d="M111.36,125.191c0,0-3.551,1.863-2.92,4.793s3.394,11.99,13.852,7.407l-1.118-2.131
			c0,0-4.946,0.24-5.983-1.391c0,0,5.785-1.405,4.064-5.031C117.532,125.213,115.479,123.029,111.36,125.191z"/>
		<path fill="#27AAE1" d="M-32.307,225.525c0,0-3.552,1.863-2.921,4.793c0.632,2.93,3.395,11.99,13.853,7.406l-1.118-2.131
			c0,0-4.947,0.24-5.983-1.39c0,0,5.784-1.405,4.063-5.031C-26.136,225.547-28.188,223.363-32.307,225.525z"/>
		<path fill="#27AAE1" d="M-12.974,215.858c0,0-3.551,1.863-2.92,4.793s3.394,11.989,13.852,7.407l-1.118-2.131
			c0,0-4.946,0.24-5.983-1.391c0,0,5.785-1.405,4.064-5.031C-6.802,215.88-8.854,213.696-12.974,215.858z"/>
		<path fill="#27AAE1" d="M9.36,202.525c0,0-3.552,1.863-2.921,4.793c0.632,2.93,3.395,11.99,13.853,7.407l-1.118-2.131
			c0,0-4.947,0.24-5.983-1.391c0,0,5.784-1.405,4.063-5.031C15.531,202.547,13.479,200.363,9.36,202.525z"/>
		<path fill="#27AAE1" d="M28.693,192.858c0,0-3.551,1.863-2.92,4.793s3.394,11.989,13.852,7.407l-1.118-2.131
			c0,0-4.946,0.24-5.983-1.391c0,0,5.785-1.405,4.064-5.031C34.865,192.88,32.812,190.696,28.693,192.858z"/>
		<path fill="#27AAE1" d="M50.36,181.191c0,0-3.552,1.863-2.921,4.793c0.632,2.93,3.395,11.99,13.853,7.408l-1.118-2.131
			c0,0-4.947,0.24-5.983-1.391c0,0,5.784-1.406,4.063-5.031C56.531,181.214,54.479,179.029,50.36,181.191z"/>
		<path fill="#27AAE1" d="M50.36,204.191c0,0-3.552,1.863-2.921,4.793c0.632,2.93,3.395,11.99,13.853,7.408l-1.118-2.131
			c0,0-4.947,0.24-5.983-1.391c0,0,5.784-1.406,4.063-5.031C56.531,204.214,54.479,202.029,50.36,204.191z"/>
		<path fill="#27AAE1" d="M69.693,171.525c0,0-3.551,1.863-2.92,4.793s3.394,11.989,13.852,7.406l-1.118-2.131
			c0,0-4.946,0.24-5.983-1.391c0,0,5.785-1.404,4.064-5.031C75.865,171.546,73.812,169.363,69.693,171.525z"/>
		<path fill="#27AAE1" d="M75.026,192.858c0,0-3.551,1.863-2.92,4.793s3.394,11.989,13.852,7.407l-1.118-2.131
			c0,0-4.946,0.24-5.983-1.391c0,0,5.785-1.405,4.064-5.031C81.198,192.88,79.146,190.696,75.026,192.858z"/>
		<path fill="#27AAE1" d="M96.693,181.191c0,0-3.552,1.863-2.921,4.793c0.632,2.93,3.395,11.99,13.853,7.408l-1.118-2.131
			c0,0-4.947,0.24-5.983-1.391c0,0,5.784-1.406,4.063-5.031C102.864,181.214,100.812,179.029,96.693,181.191z"/>
		<path fill="#27AAE1" d="M75.026,217.332c0,0-3.551,1.863-2.92,4.793s3.394,11.988,13.852,7.406L84.84,227.4
			c0,0-4.946,0.24-5.983-1.391c0,0,5.785-1.404,4.064-5.031C81.198,217.353,79.146,215.169,75.026,217.332z"/>
		<path fill="#27AAE1" d="M96.693,205.665c0,0-3.552,1.863-2.921,4.793c0.632,2.93,3.395,11.989,13.853,7.407l-1.118-2.131
			c0,0-4.947,0.24-5.983-1.391c0,0,5.784-1.405,4.063-5.031C102.864,205.687,100.812,203.502,96.693,205.665z"/>
		<path fill="#27AAE1" d="M116.026,171.525c0,0-3.551,1.863-2.92,4.793s3.394,11.989,13.852,7.406l-1.118-2.131
			c0,0-4.946,0.24-5.983-1.391c0,0,5.785-1.404,4.064-5.031C122.198,171.546,120.146,169.363,116.026,171.525z"/>
		<path fill="#27AAE1" d="M92.027,158.191c0,0-3.552,1.863-2.921,4.793c0.632,2.93,3.395,11.99,13.853,7.408l-1.118-2.131
			c0,0-4.947,0.24-5.983-1.391c0,0,5.784-1.406,4.063-5.031C98.198,158.214,96.146,156.029,92.027,158.191z"/>
		<path fill="#27AAE1" d="M111.36,148.525c0,0-3.551,1.863-2.92,4.793s3.394,11.989,13.852,7.406l-1.118-2.131
			c0,0-4.946,0.24-5.983-1.391c0,0,5.785-1.404,4.064-5.031C117.532,148.546,115.479,146.363,111.36,148.525z"/>
		<path fill="#27AAE1" d="M111.36,198.191c0,0-3.551,1.863-2.92,4.793s3.394,11.99,13.852,7.407l-1.118-2.131
			c0,0-4.946,0.24-5.983-1.391c0,0,5.785-1.405,4.064-5.031C117.532,198.213,115.479,196.029,111.36,198.191z"/>
		<path fill="#27AAE1" d="M116.026,244.525c0,0-3.551,1.863-2.92,4.793s3.394,11.989,13.852,7.406l-1.118-2.131
			c0,0-4.946,0.24-5.983-1.391c0,0,5.785-1.404,4.064-5.031C122.198,244.546,120.146,242.363,116.026,244.525z"/>
		<path fill="#27AAE1" d="M111.36,221.525c0,0-3.551,1.863-2.92,4.793s3.394,11.989,13.852,7.406l-1.118-2.131
			c0,0-4.946,0.24-5.983-1.391c0,0,5.785-1.404,4.064-5.031C117.532,221.546,115.479,219.363,111.36,221.525z"/>
		<path fill="#27AAE1" d="M-32.307,67.191c0,0-3.552,1.863-2.921,4.793c0.632,2.93,3.395,11.99,13.853,7.407l-1.118-2.131
			c0,0-4.947,0.24-5.983-1.391c0,0,5.784-1.405,4.063-5.031C-26.136,67.214-28.188,65.029-32.307,67.191z"/>
		<path fill="#27AAE1" d="M-12.974,57.524c0,0-3.551,1.863-2.92,4.793s3.394,11.99,13.852,7.407l-1.118-2.131
			c0,0-4.946,0.24-5.983-1.391c0,0,5.785-1.405,4.064-5.031C-6.802,57.547-8.854,55.362-12.974,57.524z"/>
		<path fill="#27AAE1" d="M9.36,44.191c0,0-3.552,1.863-2.921,4.793c0.632,2.93,3.395,11.99,13.853,7.407l-1.118-2.131
			c0,0-4.947,0.24-5.983-1.391c0,0,5.784-1.405,4.063-5.031C15.531,44.214,13.479,42.029,9.36,44.191z"/>
		<path fill="#27AAE1" d="M28.693,34.524c0,0-3.551,1.863-2.92,4.793s3.394,11.99,13.852,7.407l-1.118-2.131
			c0,0-4.946,0.24-5.983-1.391c0,0,5.785-1.405,4.064-5.031C34.865,34.547,32.812,32.362,28.693,34.524z"/>
		<path fill="#27AAE1" d="M50.36,22.858c0,0-3.552,1.863-2.921,4.793c0.632,2.93,3.395,11.99,13.853,7.407l-1.118-2.131
			c0,0-4.947,0.24-5.983-1.391c0,0,5.784-1.405,4.063-5.031C56.531,22.88,54.479,20.696,50.36,22.858z"/>
		<path fill="#27AAE1" d="M69.693,13.191c0,0-3.551,1.863-2.92,4.793s3.394,11.99,13.852,7.407l-1.118-2.131
			c0,0-4.946,0.24-5.983-1.391c0,0,5.785-1.405,4.064-5.031C75.865,13.213,73.812,11.029,69.693,13.191z"/>
		<path fill="#27AAE1" d="M92.027-0.142c0,0-3.552,1.863-2.921,4.793c0.632,2.93,3.395,11.99,13.853,7.407l-1.118-2.131
			c0,0-4.947,0.24-5.983-1.391c0,0,5.784-1.405,4.063-5.031C98.198-0.12,96.146-2.304,92.027-0.142z"/>
		<path fill="#27AAE1" d="M111.36-9.809c0,0-3.551,1.863-2.92,4.793s3.394,11.99,13.852,7.407l-1.118-2.131
			c0,0-4.946,0.24-5.983-1.391c0,0,5.785-1.405,4.064-5.031C117.532-9.787,115.479-11.971,111.36-9.809z"/>
		<path fill="#27AAE1" d="M-32.307,90.525c0,0-3.552,1.863-2.921,4.793c0.632,2.93,3.395,11.99,13.853,7.407l-1.118-2.131
			c0,0-4.947,0.24-5.983-1.39c0,0,5.784-1.405,4.063-5.031C-26.136,90.547-28.188,88.363-32.307,90.525z"/>
		<path fill="#27AAE1" d="M-12.974,80.858c0,0-3.551,1.863-2.92,4.793s3.394,11.99,13.852,7.407l-1.118-2.131
			c0,0-4.946,0.24-5.983-1.391c0,0,5.785-1.405,4.064-5.031C-6.802,80.88-8.854,78.696-12.974,80.858z"/>
		<path fill="#27AAE1" d="M9.36,67.525c0,0-3.552,1.863-2.921,4.793c0.632,2.93,3.395,11.99,13.853,7.407l-1.118-2.131
			c0,0-4.947,0.24-5.983-1.391c0,0,5.784-1.405,4.063-5.031C15.531,67.547,13.479,65.363,9.36,67.525z"/>
		<path fill="#27AAE1" d="M28.693,57.858c0,0-3.551,1.863-2.92,4.793s3.394,11.99,13.852,7.407l-1.118-2.131
			c0,0-4.946,0.24-5.983-1.391c0,0,5.785-1.405,4.064-5.031C34.865,57.88,32.812,55.696,28.693,57.858z"/>
		<path fill="#27AAE1" d="M50.36,46.191c0,0-3.552,1.863-2.921,4.793c0.632,2.93,3.395,11.99,13.853,7.407l-1.118-2.131
			c0,0-4.947,0.24-5.983-1.391c0,0,5.784-1.405,4.063-5.031C56.531,46.214,54.479,44.029,50.36,46.191z"/>
		<path fill="#27AAE1" d="M69.693,36.524c0,0-3.551,1.863-2.92,4.793s3.394,11.99,13.852,7.407l-1.118-2.131
			c0,0-4.946,0.24-5.983-1.391c0,0,5.785-1.405,4.064-5.031C75.865,36.547,73.812,34.362,69.693,36.524z"/>
		<path fill="#27AAE1" d="M92.027,23.191c0,0-3.552,1.863-2.921,4.793c0.632,2.93,3.395,11.99,13.853,7.407l-1.118-2.131
			c0,0-4.947,0.24-5.983-1.391c0,0,5.784-1.405,4.063-5.031C98.198,23.214,96.146,21.029,92.027,23.191z"/>
		<path fill="#27AAE1" d="M111.36,13.524c0,0-3.551,1.863-2.92,4.793s3.394,11.99,13.852,7.407l-1.118-2.131
			c0,0-4.946,0.24-5.983-1.391c0,0,5.785-1.405,4.064-5.031C117.532,13.547,115.479,11.362,111.36,13.524z"/>
		<path fill="#27AAE1" d="M-32.307,111.857c0,0-3.552,1.863-2.921,4.792c0.632,2.93,3.395,11.99,13.853,7.408l-1.118-2.131
			c0,0-4.947,0.24-5.983-1.391c0,0,5.784-1.406,4.063-5.03C-26.136,111.881-28.188,109.695-32.307,111.857z"/>
		<path fill="#27AAE1" d="M-12.974,102.191c0,0-3.551,1.863-2.92,4.793s3.394,11.99,13.852,7.406l-1.118-2.131
			c0,0-4.946,0.24-5.983-1.391c0,0,5.785-1.404,4.064-5.031C-6.802,102.213-8.854,100.029-12.974,102.191z"/>
		<path fill="#27AAE1" d="M9.36,88.858c0,0-3.552,1.863-2.921,4.793c0.632,2.93,3.395,11.99,13.853,7.408l-1.118-2.131
			c0,0-4.947,0.24-5.983-1.391c0,0,5.784-1.405,4.063-5.031C15.531,88.88,13.479,86.696,9.36,88.858z"/>
		<path fill="#27AAE1" d="M28.693,79.191c0,0-3.551,1.863-2.92,4.793s3.394,11.99,13.852,7.407l-1.118-2.131
			c0,0-4.946,0.24-5.983-1.391c0,0,5.785-1.405,4.064-5.031C34.865,79.213,32.812,77.029,28.693,79.191z"/>
		<path fill="#27AAE1" d="M50.36,67.524c0,0-3.552,1.863-2.921,4.793c0.632,2.93,3.395,11.99,13.853,7.407l-1.118-2.131
			c0,0-4.947,0.24-5.983-1.391c0,0,5.784-1.405,4.063-5.031C56.531,67.547,54.479,65.362,50.36,67.524z"/>
		<path fill="#27AAE1" d="M69.693,57.857c0,0-3.551,1.863-2.92,4.793s3.394,11.99,13.852,7.407l-1.118-2.131
			c0,0-4.946,0.24-5.983-1.391c0,0,5.785-1.405,4.064-5.031C75.865,57.88,73.812,55.695,69.693,57.857z"/>
		<path fill="#27AAE1" d="M92.027,44.524c0,0-3.552,1.863-2.921,4.793c0.632,2.93,3.395,11.99,13.853,7.407l-1.118-2.131
			c0,0-4.947,0.24-5.983-1.391c0,0,5.784-1.405,4.063-5.031C98.198,44.547,96.146,42.362,92.027,44.524z"/>
		<path fill="#27AAE1" d="M111.36,34.857c0,0-3.551,1.863-2.92,4.793s3.394,11.99,13.852,7.407l-1.118-2.131
			c0,0-4.946,0.24-5.983-1.391c0,0,5.785-1.405,4.064-5.031C117.532,34.88,115.479,32.695,111.36,34.857z"/>
		<path fill="#27AAE1" d="M-12.974,125.525c0,0-3.551,1.863-2.92,4.793s3.394,11.988,13.852,7.406l-1.118-2.131
			c0,0-4.946,0.24-5.983-1.391c0,0,5.785-1.404,4.064-5.031C-6.802,125.546-8.854,123.363-12.974,125.525z"/>
		<path fill="#27AAE1" d="M9.36,112.191c0,0-3.552,1.863-2.921,4.792c0.632,2.93,3.395,11.99,13.853,7.408l-1.118-2.131
			c0,0-4.947,0.24-5.983-1.391c0,0,5.784-1.406,4.063-5.032C15.531,112.214,13.479,110.029,9.36,112.191z"/>
		<path fill="#27AAE1" d="M28.693,102.524c0,0-3.551,1.863-2.92,4.793s3.394,11.989,13.852,7.407l-1.118-2.131
			c0,0-4.946,0.24-5.983-1.391c0,0,5.785-1.405,4.064-5.031C34.865,102.547,32.812,100.362,28.693,102.524z"/>
		<path fill="#27AAE1" d="M50.36,90.858c0,0-3.552,1.863-2.921,4.793c0.632,2.93,3.395,11.99,13.853,7.408l-1.118-2.131
			c0,0-4.947,0.24-5.983-1.391c0,0,5.784-1.405,4.063-5.031C56.531,90.88,54.479,88.696,50.36,90.858z"/>
		<path fill="#27AAE1" d="M69.693,81.191c0,0-3.551,1.863-2.92,4.793s3.394,11.99,13.852,7.407l-1.118-2.131
			c0,0-4.946,0.24-5.983-1.391c0,0,5.785-1.405,4.064-5.031C75.865,81.213,73.812,79.029,69.693,81.191z"/>
		<path fill="#27AAE1" d="M92.027,67.858c0,0-3.552,1.863-2.921,4.793c0.632,2.93,3.395,11.99,13.853,7.407l-1.118-2.131
			c0,0-4.947,0.24-5.983-1.391c0,0,5.784-1.405,4.063-5.031C98.198,67.88,96.146,65.696,92.027,67.858z"/>
		<path fill="#27AAE1" d="M111.36,58.191c0,0-3.551,1.863-2.92,4.793s3.394,11.99,13.852,7.407l-1.118-2.131
			c0,0-4.946,0.24-5.983-1.391c0,0,5.785-1.405,4.064-5.031C117.532,58.213,115.479,56.029,111.36,58.191z"/>
		<path fill="#27AAE1" d="M132.026,151.525c0,0-3.551,1.863-2.92,4.793s3.394,11.989,13.852,7.406l-1.118-2.131
			c0,0-4.946,0.24-5.983-1.391c0,0,5.785-1.404,4.064-5.031C138.198,151.546,136.146,149.363,132.026,151.525z"/>
		<path fill="#27AAE1" d="M153.693,139.858c0,0-3.552,1.863-2.921,4.793c0.632,2.93,3.395,11.989,13.853,7.407l-1.118-2.131
			c0,0-4.947,0.24-5.983-1.391c0,0,5.784-1.405,4.063-5.031C159.864,139.88,157.812,137.696,153.693,139.858z"/>
		<path fill="#27AAE1" d="M173.026,130.191c0,0-3.551,1.863-2.92,4.793s3.394,11.99,13.852,7.407l-1.118-2.131
			c0,0-4.946,0.24-5.983-1.391c0,0,5.785-1.405,4.064-5.031C179.198,130.213,177.146,128.029,173.026,130.191z"/>
		<path fill="#27AAE1" d="M195.36,116.858c0,0-3.552,1.863-2.921,4.793c0.632,2.93,3.395,11.989,13.853,7.407l-1.118-2.131
			c0,0-4.947,0.24-5.983-1.391c0,0,5.784-1.405,4.063-5.031C201.531,116.88,199.479,114.696,195.36,116.858z"/>
		<path fill="#27AAE1" d="M214.693,107.191c0,0-3.551,1.863-2.92,4.793s3.394,11.99,13.852,7.407l-1.118-2.131
			c0,0-4.946,0.24-5.983-1.391c0,0,5.785-1.405,4.064-5.031C220.865,107.213,218.812,105.029,214.693,107.191z"/>
		<path fill="#27AAE1" d="M132.026,174.858c0,0-3.551,1.863-2.92,4.793s3.394,11.989,13.852,7.407l-1.118-2.131
			c0,0-4.946,0.24-5.983-1.391c0,0,5.785-1.405,4.064-5.031C138.198,174.88,136.146,172.696,132.026,174.858z"/>
		<path fill="#27AAE1" d="M153.693,163.191c0,0-3.552,1.863-2.921,4.793c0.632,2.93,3.395,11.99,13.853,7.408l-1.118-2.131
			c0,0-4.947,0.24-5.983-1.391c0,0,5.784-1.406,4.063-5.031C159.864,163.214,157.812,161.029,153.693,163.191z"/>
		<path fill="#27AAE1" d="M173.026,153.525c0,0-3.551,1.863-2.92,4.793s3.394,11.989,13.852,7.406l-1.118-2.131
			c0,0-4.946,0.24-5.983-1.391c0,0,5.785-1.404,4.064-5.031C179.198,153.546,177.146,151.363,173.026,153.525z"/>
		<path fill="#27AAE1" d="M195.36,140.191c0,0-3.552,1.863-2.921,4.793c0.632,2.93,3.395,11.99,13.853,7.408l-1.118-2.131
			c0,0-4.947,0.24-5.983-1.391c0,0,5.784-1.406,4.063-5.031C201.531,140.214,199.479,138.029,195.36,140.191z"/>
		<path fill="#27AAE1" d="M214.693,130.525c0,0-3.551,1.863-2.92,4.793s3.394,11.989,13.852,7.406l-1.118-2.131
			c0,0-4.946,0.24-5.983-1.391c0,0,5.785-1.404,4.064-5.031C220.865,130.546,218.812,128.363,214.693,130.525z"/>
		<path fill="#27AAE1" d="M132.026,196.191c0,0-3.551,1.863-2.92,4.793s3.394,11.99,13.852,7.407l-1.118-2.131
			c0,0-4.946,0.24-5.983-1.391c0,0,5.785-1.405,4.064-5.031C138.198,196.213,136.146,194.029,132.026,196.191z"/>
		<path fill="#27AAE1" d="M153.693,184.525c0,0-3.552,1.863-2.921,4.793c0.632,2.93,3.395,11.989,13.853,7.406l-1.118-2.131
			c0,0-4.947,0.24-5.983-1.391c0,0,5.784-1.404,4.063-5.031C159.864,184.546,157.812,182.363,153.693,184.525z"/>
		<path fill="#27AAE1" d="M173.026,174.857c0,0-3.551,1.863-2.92,4.793s3.394,11.99,13.852,7.408l-1.118-2.131
			c0,0-4.946,0.24-5.983-1.391c0,0,5.785-1.406,4.064-5.031C179.198,174.88,177.146,172.695,173.026,174.857z"/>
		<path fill="#27AAE1" d="M195.36,161.525c0,0-3.552,1.863-2.921,4.793c0.632,2.93,3.395,11.989,13.853,7.406l-1.118-2.131
			c0,0-4.947,0.24-5.983-1.391c0,0,5.784-1.404,4.063-5.031C201.531,161.546,199.479,159.363,195.36,161.525z"/>
		<path fill="#27AAE1" d="M214.693,151.857c0,0-3.551,1.863-2.92,4.793s3.394,11.99,13.852,7.408l-1.118-2.131
			c0,0-4.946,0.24-5.983-1.391c0,0,5.785-1.406,4.064-5.031C220.865,151.88,218.812,149.695,214.693,151.857z"/>
		<path fill="#27AAE1" d="M132.026,219.525c0,0-3.551,1.863-2.92,4.793s3.394,11.988,13.852,7.406l-1.118-2.131
			c0,0-4.946,0.24-5.983-1.391c0,0,5.785-1.404,4.064-5.031C138.198,219.546,136.146,217.363,132.026,219.525z"/>
		<path fill="#27AAE1" d="M153.693,207.858c0,0-3.552,1.863-2.921,4.793c0.632,2.93,3.395,11.989,13.853,7.407l-1.118-2.131
			c0,0-4.947,0.24-5.983-1.391c0,0,5.784-1.405,4.063-5.031C159.864,207.88,157.812,205.696,153.693,207.858z"/>
		<path fill="#27AAE1" d="M173.026,198.191c0,0-3.551,1.863-2.92,4.793s3.394,11.99,13.852,7.407l-1.118-2.131
			c0,0-4.946,0.24-5.983-1.391c0,0,5.785-1.405,4.064-5.031C179.198,198.213,177.146,196.029,173.026,198.191z"/>
		<path fill="#27AAE1" d="M195.36,184.858c0,0-3.552,1.863-2.921,4.793c0.632,2.93,3.395,11.989,13.853,7.407l-1.118-2.131
			c0,0-4.947,0.24-5.983-1.391c0,0,5.784-1.405,4.063-5.031C201.531,184.88,199.479,182.696,195.36,184.858z"/>
		<path fill="#27AAE1" d="M214.693,175.191c0,0-3.551,1.863-2.92,4.793s3.394,11.99,13.852,7.407l-1.118-2.131
			c0,0-4.946,0.24-5.983-1.391c0,0,5.785-1.405,4.064-5.031C220.865,175.213,218.812,173.029,214.693,175.191z"/>
		<path fill="#27AAE1" d="M132.026,61.191c0,0-3.551,1.863-2.92,4.793s3.394,11.99,13.852,7.407l-1.118-2.131
			c0,0-4.946,0.24-5.983-1.391c0,0,5.785-1.405,4.064-5.031C138.198,61.213,136.146,59.029,132.026,61.191z"/>
		<path fill="#27AAE1" d="M153.693,49.524c0,0-3.552,1.863-2.921,4.793c0.632,2.93,3.395,11.99,13.853,7.407l-1.118-2.131
			c0,0-4.947,0.24-5.983-1.391c0,0,5.784-1.405,4.063-5.031C159.864,49.547,157.812,47.362,153.693,49.524z"/>
		<path fill="#27AAE1" d="M173.026,39.857c0,0-3.551,1.863-2.92,4.793s3.394,11.99,13.852,7.407l-1.118-2.131
			c0,0-4.946,0.24-5.983-1.391c0,0,5.785-1.405,4.064-5.031C179.198,39.88,177.146,37.695,173.026,39.857z"/>
		<path fill="#27AAE1" d="M195.36,26.524c0,0-3.552,1.863-2.921,4.793c0.632,2.93,3.395,11.99,13.853,7.407l-1.118-2.131
			c0,0-4.947,0.24-5.983-1.391c0,0,5.784-1.405,4.063-5.031C201.531,26.547,199.479,24.362,195.36,26.524z"/>
		<path fill="#27AAE1" d="M214.693,16.857c0,0-3.551,1.863-2.92,4.793s3.394,11.99,13.852,7.407l-1.118-2.131
			c0,0-4.946,0.24-5.983-1.391c0,0,5.785-1.405,4.064-5.031C220.865,16.88,218.812,14.695,214.693,16.857z"/>
		<path fill="#27AAE1" d="M132.026,84.524c0,0-3.551,1.863-2.92,4.793s3.394,11.99,13.852,7.407l-1.118-2.131
			c0,0-4.946,0.24-5.983-1.391c0,0,5.785-1.405,4.064-5.031C138.198,84.547,136.146,82.362,132.026,84.524z"/>
		<path fill="#27AAE1" d="M153.693,72.858c0,0-3.552,1.863-2.921,4.793c0.632,2.93,3.395,11.99,13.853,7.407l-1.118-2.131
			c0,0-4.947,0.24-5.983-1.391c0,0,5.784-1.405,4.063-5.031C159.864,72.88,157.812,70.696,153.693,72.858z"/>
		<path fill="#27AAE1" d="M173.026,63.191c0,0-3.551,1.863-2.92,4.793s3.394,11.99,13.852,7.407l-1.118-2.131
			c0,0-4.946,0.24-5.983-1.391c0,0,5.785-1.405,4.064-5.031C179.198,63.213,177.146,61.029,173.026,63.191z"/>
		<path fill="#27AAE1" d="M195.36,49.858c0,0-3.552,1.863-2.921,4.793c0.632,2.93,3.395,11.99,13.853,7.407l-1.118-2.131
			c0,0-4.947,0.24-5.983-1.391c0,0,5.784-1.405,4.063-5.031C201.531,49.88,199.479,47.696,195.36,49.858z"/>
		<path fill="#27AAE1" d="M214.693,40.191c0,0-3.551,1.863-2.92,4.793s3.394,11.99,13.852,7.407l-1.118-2.131
			c0,0-4.946,0.24-5.983-1.391c0,0,5.785-1.405,4.064-5.031C220.865,40.213,218.812,38.029,214.693,40.191z"/>
		<path fill="#27AAE1" d="M153.693,2.191c0,0-3.552,1.863-2.921,4.793c0.632,2.93,3.395,11.99,13.853,7.407l-1.118-2.131
			c0,0-4.947,0.24-5.983-1.391c0,0,5.784-1.405,4.063-5.031C159.864,2.213,157.812,0.029,153.693,2.191z"/>
		<path fill="#27AAE1" d="M173.026-7.476c0,0-3.551,1.863-2.92,4.793s3.394,11.99,13.852,7.407l-1.118-2.131
			c0,0-4.946,0.24-5.983-1.391c0,0,5.785-1.405,4.064-5.031C179.198-7.454,177.146-9.638,173.026-7.476z"/>
		<path fill="#27AAE1" d="M195.36-20.809c0,0-3.552,1.863-2.921,4.793c0.632,2.93,3.395,11.99,13.853,7.407l-1.118-2.131
			c0,0-4.947,0.24-5.983-1.391c0,0,5.784-1.405,4.063-5.031C201.531-20.787,199.479-22.971,195.36-20.809z"/>
		<path fill="#27AAE1" d="M214.693-30.476c0,0-3.551,1.863-2.92,4.793s3.394,11.99,13.852,7.407l-1.118-2.131
			c0,0-4.946,0.24-5.983-1.391c0,0,5.785-1.405,4.064-5.031C220.865-30.454,218.812-32.638,214.693-30.476z"/>
		<path fill="#27AAE1" d="M153.693,25.524c0,0-3.552,1.863-2.921,4.793c0.632,2.93,3.395,11.99,13.853,7.407l-1.118-2.131
			c0,0-4.947,0.24-5.983-1.391c0,0,5.784-1.405,4.063-5.031C159.864,25.547,157.812,23.362,153.693,25.524z"/>
		<path fill="#27AAE1" d="M173.026,15.857c0,0-3.551,1.863-2.92,4.793s3.394,11.99,13.852,7.407l-1.118-2.131
			c0,0-4.946,0.24-5.983-1.391c0,0,5.785-1.405,4.064-5.031C179.198,15.88,177.146,13.695,173.026,15.857z"/>
		<path fill="#27AAE1" d="M195.36,2.524c0,0-3.552,1.863-2.921,4.793c0.632,2.93,3.395,11.99,13.853,7.407l-1.118-2.131
			c0,0-4.947,0.24-5.983-1.391c0,0,5.784-1.405,4.063-5.031C201.531,2.547,199.479,0.362,195.36,2.524z"/>
		<path fill="#27AAE1" d="M214.693-7.143c0,0-3.551,1.863-2.92,4.793s3.394,11.99,13.852,7.407l-1.118-2.131
			c0,0-4.946,0.24-5.983-1.391c0,0,5.785-1.405,4.064-5.031C220.865-7.12,218.812-9.305,214.693-7.143z"/>
		<path fill="#27AAE1" d="M132.026,105.857c0,0-3.551,1.863-2.92,4.793s3.394,11.99,13.852,7.408l-1.118-2.132
			c0,0-4.946,0.24-5.983-1.39c0,0,5.785-1.405,4.064-5.031C138.198,105.88,136.146,103.695,132.026,105.857z"/>
		<path fill="#27AAE1" d="M153.693,94.191c0,0-3.552,1.863-2.921,4.793c0.632,2.93,3.395,11.99,13.853,7.407l-1.118-2.131
			c0,0-4.947,0.24-5.983-1.391c0,0,5.784-1.405,4.063-5.031C159.864,94.213,157.812,92.029,153.693,94.191z"/>
		<path fill="#27AAE1" d="M173.026,84.524c0,0-3.551,1.863-2.92,4.793s3.394,11.99,13.852,7.407l-1.118-2.131
			c0,0-4.946,0.24-5.983-1.391c0,0,5.785-1.405,4.064-5.031C179.198,84.546,177.146,82.362,173.026,84.524z"/>
		<path fill="#27AAE1" d="M195.36,71.191c0,0-3.552,1.863-2.921,4.793c0.632,2.93,3.395,11.99,13.853,7.407l-1.118-2.131
			c0,0-4.947,0.24-5.983-1.391c0,0,5.784-1.405,4.063-5.031C201.531,71.213,199.479,69.029,195.36,71.191z"/>
		<path fill="#27AAE1" d="M214.693,61.524c0,0-3.551,1.863-2.92,4.793s3.394,11.99,13.852,7.407l-1.118-2.131
			c0,0-4.946,0.24-5.983-1.391c0,0,5.785-1.405,4.064-5.031C220.865,61.546,218.812,59.362,214.693,61.524z"/>
		<path fill="#27AAE1" d="M132.026,129.191c0,0-3.551,1.863-2.92,4.793s3.394,11.989,13.852,7.407l-1.118-2.131
			c0,0-4.946,0.24-5.983-1.391c0,0,5.785-1.405,4.064-5.031C138.198,129.213,136.146,127.029,132.026,129.191z"/>
		<path fill="#27AAE1" d="M132.026-31.476c0,0-3.551,1.863-2.92,4.793s3.394,11.99,13.852,7.407l-1.118-2.131
			c0,0-4.946,0.24-5.983-1.391c0,0,5.785-1.405,4.064-5.031C138.198-31.453,136.146-33.638,132.026-31.476z"/>
		<path fill="#27AAE1" d="M132.026-8.142c0,0-3.551,1.863-2.92,4.793s3.394,11.99,13.852,7.407l-1.118-2.131
			c0,0-4.946,0.24-5.983-1.391c0,0,5.785-1.405,4.064-5.031C138.198-8.12,136.146-10.304,132.026-8.142z"/>
		<path fill="#27AAE1" d="M132.026,13.191c0,0-3.551,1.863-2.92,4.793s3.394,11.99,13.852,7.407l-1.118-2.131
			c0,0-4.946,0.24-5.983-1.391c0,0,5.785-1.405,4.064-5.031C138.198,13.213,136.146,11.029,132.026,13.191z"/>
		<path fill="#27AAE1" d="M132.026,36.524c0,0-3.551,1.863-2.92,4.793s3.394,11.989,13.852,7.407l-1.118-2.131
			c0,0-4.946,0.24-5.983-1.391c0,0,5.785-1.405,4.064-5.031C138.198,36.547,136.146,34.362,132.026,36.524z"/>
		<path fill="#27AAE1" d="M153.693,117.525c0,0-3.552,1.863-2.921,4.793c0.632,2.93,3.395,11.989,13.853,7.407l-1.118-2.131
			c0,0-4.947,0.24-5.983-1.392c0,0,5.784-1.404,4.063-5.031C159.864,117.546,157.812,115.362,153.693,117.525z"/>
		<path fill="#27AAE1" d="M173.026,107.857c0,0-3.551,1.863-2.92,4.793c0.631,2.93,3.394,11.99,13.852,7.408l-1.118-2.131
			c0,0-4.946,0.24-5.983-1.391c0,0,5.785-1.406,4.064-5.032C179.198,107.88,177.146,105.695,173.026,107.857z"/>
		<path fill="#27AAE1" d="M195.36,94.524c0,0-3.552,1.863-2.921,4.793c0.632,2.93,3.395,11.99,13.853,7.407l-1.118-2.131
			c0,0-4.947,0.24-5.983-1.391c0,0,5.784-1.405,4.063-5.031C201.531,94.547,199.479,92.362,195.36,94.524z"/>
		<path fill="#27AAE1" d="M214.693,84.857c0,0-3.551,1.863-2.92,4.793s3.394,11.99,13.852,7.407l-1.118-2.131
			c0,0-4.946,0.24-5.983-1.391c0,0,5.785-1.405,4.064-5.031C220.865,84.88,218.812,82.695,214.693,84.857z"/>
	</g>
</g>
<circle opacity="0.4" fill="#F8EFE0" cx="113.667" cy="113.666" r="113.667"/>
<circle opacity="0.4" fill="#F8EFE0" cx="113.667" cy="114.666" r="113.667"/>
<g>
	<g>
		<path fill="#27AAE1" d="M160.806,82.956c-6.654,0-49.572,0.587-54.885,36.474c-5.311,35.887,31.868,43.534,53.114,44.71
			c21.244,1.176,46.472-11.179,42.045-41.771C196.656,91.78,178.51,82.956,160.806,82.956z"/>
		<path fill="#27AAE1" d="M201.659,132.374c0,0-9.602,56.076-62.517,44.636c0,0,36.989-33.032,30.792-49.397"/>
	</g>
	<g>
		<line fill="none" stroke="#D1D3D4" stroke-miterlimit="10" x1="178.167" y1="101.667" x2="123.667" y2="108.167"/>
		<line fill="none" stroke="#D1D3D4" stroke-miterlimit="10" x1="181.667" y1="116.167" x2="127.167" y2="122.667"/>
		<line fill="none" stroke="#D1D3D4" stroke-miterlimit="10" x1="184.667" y1="130.167" x2="130.167" y2="136.667"/>
	</g>
</g>
<path fill="#E6E7E8" d="M123.146,83.467"/>
<g>
	<path fill="#17629E" d="M68.496,49.334c6.984,0,52.035,0.616,57.612,38.286c5.572,37.67-33.453,45.697-55.754,46.932
		c-22.3,1.234-48.78-11.733-44.135-43.845C30.864,58.597,49.911,49.334,68.496,49.334z"/>
	<path fill="#17629E" d="M26.301,103.715c0,0,3.427,61.803,72.868,46.205c-19.574-10.197-51.973-20.176-41.862-47.414"/>
</g>
<g>
	<line fill="none" stroke="#D1D3D4" stroke-miterlimit="10" x1="52.667" y1="77.667" x2="107.167" y2="84.167"/>
	<line fill="none" stroke="#D1D3D4" stroke-miterlimit="10" x1="49.167" y1="92.167" x2="103.667" y2="98.667"/>
	<line fill="none" stroke="#D1D3D4" stroke-miterlimit="10" x1="46.167" y1="106.167" x2="100.667" y2="112.667"/>
</g>
</svg>
