<?xml version="1.0" encoding="utf-8"?>
<!-- Generator: Adobe Illustrator 16.0.0, SVG Export Plug-In . SVG Version: 6.00 Build 0)  -->
<!DOCTYPE svg PUBLIC "-//W3C//DTD SVG 1.1//EN" "http://www.w3.org/Graphics/SVG/1.1/DTD/svg11.dtd">
<svg version="1.1" xmlns="http://www.w3.org/2000/svg" xmlns:xlink="http://www.w3.org/1999/xlink" x="0px" y="0px"
	 width="227.333px" height="227.333px" viewBox="0 0 227.333 227.333" enable-background="new 0 0 227.333 227.333"
	 xml:space="preserve">
<g id="Layer_1">
	<circle opacity="0.4" fill="#27AAE1" cx="113.667" cy="113.666" r="113.667"/>
	<path fill="#BCB4AA" d="M130.333,55.167c0,0-0.5-1.333,1.167-0.667S194.833,82,194.833,82l1.834,0.833c0,0,4.334,1-0.5,7.167
		s-50,55.5-50,55.5s45.166-51.667,48.333-55.667S194.333,84,194.333,84S132.167,56,129,54.667s-4.5,0.833-4.5,0.833l-34.25,39
		l55.917,51"/>
	<linearGradient id="SVGID_1_" gradientUnits="userSpaceOnUse" x1="115.7017" y1="77.0947" x2="196.4777" y2="143.5526">
		<stop  offset="0" style="stop-color:#DE6D45"/>
		<stop  offset="1" style="stop-color:#A55030"/>
	</linearGradient>
	<path fill="url(#SVGID_1_)" d="M155.095,147.246l51.346-31.798c0,0,8.602-3.649,2.867-7.559
		c-5.734-3.909-14.335-9.644-14.335-9.644L139.978,67.49l-7.819-5.212c0,0-1.042-1.825-4.431,0.521
		C124.34,65.145,91.5,95.379,91.5,95.379s57.602,56.298,58.383,56.037C150.665,151.155,155.095,147.246,155.095,147.246z"/>
	<path fill="#DE6D45" d="M151,151.306l-71.516,36.718c0,0-9.228,6.609-12.777-0.35c-3.549-6.96-31.943-53.596-31.943-53.596
		l-10.825-18.271c0,0-2.839-2.262-1.242-5.221c0,0,4.525-2.436,6.122-3.219L83.653,92.75"/>
	
		<image display="none" overflow="visible" opacity="0.5" width="3264" height="2448" xlink:href="FullSizeRender.jpg"  transform="matrix(0.0693 0 0 0.0693 6.334 32.4165)">
	</image>
	<path fill="#77716A" d="M160,76l28.75,22.25c0,0,10.75,8,14,9.75s-3,5.5-3,5.5l-52,34.931l-29-29.931"/>
	<path fill="#BCB4AA" d="M49.166,98.25l-20.57,6.889c0,0-4.885,0.765-3.085,4.082c1.8,3.316,42.683,71.436,42.683,71.436
		s2.828,7.91,11.828,3.062c8.999-4.849,56.567-30.871,56.567-30.871l11.161-4.667"/>
	<path fill="#928981" d="M147.948,142.979l12.278-8.615c1.349-0.56,41.474-26.275,41.474-26.275s-0.075-6.2-5.586-2.847
		c-4.018,2.444-39.55,26.458-39.55,26.458L147.948,142.979z"/>
	<path fill="#A0978E" d="M158.75,130.75l38.75-23.25c0,0,3.5-1.5,0-4.25S188.75,98,188.75,98l-13-7.25L158.75,130.75z"/>
	<path fill="#CFC6BB" d="M50.274,98l-20.235,6.829c0,0-4.806,0.759-3.035,4.047s41.987,70.82,41.987,70.82s2.782,7.842,11.635,3.036
		c8.853-4.807,55.645-30.605,55.645-30.605l10.979-4.627"/>
	<path fill="#F8EFE0" d="M38.166,124.333L28.5,108.167c0,0-3.333-3.833,3-5.667s41-12,41-12s9.667-1.833,12.667,0
		s60.167,54.833,60.167,54.833l0.334,0.833L81.166,180c0,0-7.667,4.332-12-2.834S38.166,124.333,38.166,124.333z"/>
	<path fill="#CFC6BB" d="M146.167,145.5l38.5-44c0,0,15.499-14.167,9.666-17.5s-42.499-19-42.499-19l-20.5-9L129,54.667
		c0,0-2.833-1.667-5.333,1.667s-30.5,40.833-30.5,40.833l52.166,48.166"/>
	<g opacity="0.4">
		<defs>
			<path id="SVGID_2_" opacity="0.4" d="M38.166,124.333L28.5,108.167c0,0-3.333-3.833,3-5.667s41-12,41-12s9.667-1.833,12.667,0
				s60.167,54.833,60.167,54.833l0.334,0.833L81.166,180c0,0-7.667,4.332-12-2.834S38.166,124.333,38.166,124.333z"/>
		</defs>
		<clipPath id="SVGID_3_">
			<use xlink:href="#SVGID_2_"  overflow="visible"/>
		</clipPath>
	</g>
	<g>
		<line fill="none" stroke="#A7A9AC" stroke-miterlimit="10" x1="47" y1="121.5" x2="89.75" y2="104.75"/>
		<line fill="none" stroke="#A7A9AC" stroke-miterlimit="10" x1="51.666" y1="129.833" x2="94.416" y2="113.083"/>
		<line fill="none" stroke="#A7A9AC" stroke-miterlimit="10" x1="58.166" y1="137.5" x2="100.916" y2="120.75"/>
		<line fill="none" stroke="#A7A9AC" stroke-miterlimit="10" x1="64.5" y1="146.834" x2="107.25" y2="130.084"/>
		<line fill="none" stroke="#A7A9AC" stroke-miterlimit="10" x1="75" y1="157.001" x2="117.75" y2="140.251"/>
	</g>
	<path fill="#E1D9CC" d="M84.5,90L113,59.5c0,0,5.167-6.167,9.167-4.667s67.5,29.333,67.5,29.333s3.999,1.833-0.334,7.5
		s-44,53.667-44,53.667L84.5,90z"/>
	<path opacity="0.3" fill="#27AAE1" d="M106.06,80.576c0,0-6.449,1.968-6.576,7.636s7.371,16.036,22.784,10.716l0.579-2.209
		c0,0-9.531,0.096-10.465-2.033c0,0,9.227-5.473,5.059-10.626C113.275,78.906,106.06,80.576,106.06,80.576z"/>
	<g>
		<line fill="none" stroke="#6D6E71" stroke-miterlimit="10" x1="118.25" y1="75.75" x2="127.5" y2="65.25"/>
		<line fill="none" stroke="#6D6E71" stroke-miterlimit="10" x1="123.25" y1="80" x2="132.5" y2="69.5"/>
		<line fill="none" stroke="#6D6E71" stroke-miterlimit="10" x1="125.25" y1="90.25" x2="139" y2="73.25"/>
		<line fill="none" stroke="#6D6E71" stroke-miterlimit="10" x1="123.25" y1="110" x2="150" y2="77.5"/>
		<line fill="none" stroke="#6D6E71" stroke-miterlimit="10" x1="129.75" y1="113.75" x2="156.5" y2="81.25"/>
		<line fill="none" stroke="#6D6E71" stroke-miterlimit="10" x1="139" y1="117.5" x2="165.75" y2="85"/>
	</g>
	<g>
		<g>
			<path fill="#656360" d="M32.49,143.103l-10.709,6.289c0,0-4.929,5.27,2.72,4.25c7.649-1.021,15.638-7.989,15.638-7.989
				S34.189,143.612,32.49,143.103z"/>
			<path fill="#A7A9AC" d="M35.399,141.383c0,0,16.828-8.838,25.498-8.499c8.669,0.34,6.119,0.68,6.119,0.68l-1.529,2.21
				c0,0-4.76-0.681-11.39,1.359c-6.629,2.04-11.559,5.95-11.559,5.95L35.399,141.383z"/>
			<path fill="#A7A9AC" d="M31.49,124.991l40.888,10.866l3.223-3.134l-39.075-14.628C36.525,118.096,32.496,120.812,31.49,124.991z"
				/>
			<path fill="#A7A9AC" d="M89.284,134.583l50.485,4.59c0,0,0,4.93-1.02,7.989l-49.125-9.52
				C89.624,137.643,88.944,135.603,89.284,134.583z"/>
			<polygon fill="#656360" points="71.091,135.395 88.385,138.912 87.868,134.418 72.897,132.464 			"/>
			<path fill="#656360" d="M122.261,180.139c-0.684-3.127-2.941-12.098-4.736-19.16c-1.619,0.071-3.151,0.451-4.44,0.015
				c0.952,9.715,1.186,19.995,1.186,19.995s1.19,4.931,6.12,5.95C125.32,187.958,123.451,185.578,122.261,180.139z"/>
			<path fill="#A7A9AC" d="M117.525,160.979c-1.328-5.218-2.404-9.396-2.404-9.396s-1.869-7.649-10.368-9.689
				c-8.5-2.04-15.809-3.399-15.809-3.399l0.51,3.06c0,0,21.418,2.719,22.947,13.599c0.262,1.859,0.487,3.839,0.684,5.842
				C114.374,161.43,115.906,161.05,117.525,160.979z"/>
			<path opacity="0.3" fill="#FFFFFF" d="M88.944,139.853c0,0-0.17-6.969,1.02-9.179s1.36-5.948,6.63-5.948
				c5.269,0,13.429-0.852,23.966,2.378c10.539,3.23,21.59,5.949,19.549,14.789c-2.039,8.84-4.93,21.759-15.129,20.059
				c-10.199-1.7-22.947-5.1-26.516-6.8C94.894,153.451,89.284,152.771,88.944,139.853z"/>
			<path opacity="0.3" fill="#FFFFFF" d="M30.47,141.043c0,0-4.929-1.698-2.209-8.159c2.72-6.46,3.739-11.048,7.819-13.768
				c4.08-2.721,9.52-4.591,18.019-3.571c8.499,1.021,22.948,5.27,20.398,9.859c-2.55,4.589-10.54,13.599-12.409,15.129
				c-1.869,1.529-4.25,4.928-10.879,4.249C44.579,144.103,30.47,141.043,30.47,141.043z"/>
			<path fill="#656360" d="M147.417,134.753c-5.1-2.379-14.277-7.31-24.816-9.688c-10.54-2.379-24.647-2.889-30.767-2.04
				c-6.119,0.85-14.108-1.53-15.979-3.06c-1.87-1.53-9.179-4.59-16.998-5.949s-23.458-0.85-27.877,1.02l-3.229,6.289
				c0,0,1.359,1.699-0.34,8.669s-4.76,11.729,4.08,14.109s15.469,2.89,15.469,2.89s11.9,2.89,18.359-4.08
				c6.459-6.969,11.049-14.786,13.768-15.128c2.721-0.341,5.1-0.679,6.12,8.669c1.02,9.349,1.53,16.488,11.219,20.228
				c9.688,3.74,32.636,12.409,38.416,4.25s8.67-14.278,11.729-14.278c3.061,0,3.061-2.04,3.061-2.04l1.869-4.589
				C151.498,140.023,152.517,137.133,147.417,134.753z M74.496,125.404c-2.55,4.589-10.54,13.599-12.409,15.129
				c-1.869,1.529-4.25,4.928-10.879,4.249c-6.629-0.68-20.738-3.739-20.738-3.739s-4.929-1.698-2.209-8.159
				c2.72-6.46,3.739-11.048,7.819-13.768c4.08-2.721,9.52-4.591,18.019-3.571C62.597,116.565,77.046,120.814,74.496,125.404z
				 M140.109,141.893c-2.039,8.84-4.93,21.759-15.129,20.059c-10.199-1.7-22.947-5.1-26.516-6.8c-3.57-1.7-9.18-2.38-9.52-15.299
				c0,0-0.17-6.969,1.02-9.179s1.36-5.948,6.63-5.948c5.269,0,13.429-0.852,23.966,2.378
				C131.099,130.334,142.15,133.053,140.109,141.893z"/>
		</g>
		<path fill="#656360" d="M34.416,114.251c0,0-5.997-0.501-6.832,3.166s-0.832,2.833,1.167,5"/>
	</g>
	<path opacity="0.6" fill="#FFFFFF" d="M37.56,127.75c-0.933,0.312,1.369,8.75,1.369,8.75l16.426-1.5l-1.369-8
		C53.985,127,45.772,125,37.56,127.75z"/>
	<path opacity="0.6" fill="#FFFFFF" d="M39.955,137.824c-0.933,0.114,1.369,3.176,1.369,3.176l16.426-0.544l-1.369-2.903
		C56.381,137.553,48.168,136.827,39.955,137.824z"/>
	<path opacity="0.6" fill="#FFFFFF" d="M90.167,135.334L90.333,141c0,0,9.247-0.559,11.833,0.167l-1-6.167
		C101.167,135,97.667,134.001,90.167,135.334z"/>
	<path opacity="0.6" fill="#FFFFFF" d="M90.167,143.686l0.167,2.41c0,0,9.247-0.237,11.833,0.071l-1-2.623
		C101.167,143.544,97.667,143.118,90.167,143.686z"/>
	<polygon opacity="0.6" fill="#FFFFFF" points="93.25,148 93.75,153.25 103,156.75 101.25,148.75 	"/>
	<line fill="none" stroke="#6D6E71" stroke-miterlimit="10" x1="181.25" y1="106.5" x2="186.75" y2="102"/>
</g>
<g id="Layer_2">
</g>
</svg>
